<svg id="Outline" enable-background="new 0 0 64 64" viewBox="0 0 64 64" xmlns="http://www.w3.org/2000/svg"><g><path d="m54 35h-9v-25c0-1.6543-1.3457-3-3-3h-10c-.55225 0-1 .44727-1 1s.44775 1 1 1h10c.55176 0 1 .44824 1 1v25h-11c-1.6543 0-3 1.3457-3 3v1c0 1.30194.8385 2.40155 2 2.81567v5.18433h-12v-3c0-1.6543-1.3457-3-3-3h-3v-31c0-.55176.44873-1 1-1h10c.55225 0 1-.44727 1-1s-.44775-1-1-1h-10c-1.6543 0-3 1.3457-3 3v1h-1c-1.6543 0-3 1.3457-3 3v28.16992c0 .80273.31348 1.55762.88281 2.12695l7.82031 7.82031c.56934.56934 1.32471.88282 2.12696.88282h13.16992v1c0 1.6543 1.3457 3 3 3h18c1.6543 0 3-1.3457 3-3v-12.18427c1.1615-.41412 2-1.51379 2-2.81573v-1c0-1.6543-1.3457-3-3-3zm-12.5 5v-3h3v3zm-10.5-2c0-.55176.44873-1 1-1h7.5v3h-7.5c-.55127 0-1-.44824-1-1zm-21-25h1v28h-2v-27c0-.55176.44873-1 1-1zm-.58594 30h6.58594c.55127 0 1 .44824 1 1v6.58594zm9.58594 8v-2h12v2zm34 3c0 .55176-.44824 1-1 1h-18c-.55176 0-1-.44824-1-1v-12h20zm2-15c0 .55176-.44824 1-1 1h-7.5v-3h7.5c.55176 0 1 .44824 1 1z"/><path d="m38 45c0 .55273.44727 1 1 1h8c.55273 0 1-.44727 1-1s-.44727-1-1-1h-8c-.55273 0-1 .44727-1 1z"/><path d="m24.61523 18.92285c.5127.21289 1.0957-.0293 1.30762-.53809l.16034-.38476h2.83362s.16005.38408.16034.38477c.20131.48308.79425.75298 1.30762.53809.50977-.21191.75049-.79785.53809-1.30762l-2.5-6c-.15528-.37208-.51905-.61524-.92286-.61524s-.76758.24316-.92285.61523l-2.5 6c-.2124.50977.02832 1.09571.53808 1.30762zm3.46827-2.92285h-1.167l.5835-1.40039z"/><path d="m20.5 19c.55225 0 1-.44727 1-1v-5h1.5c.55225 0 1-.44727 1-1s-.44775-1-1-1h-5c-.55225 0-1 .44727-1 1s.44775 1 1 1h1.5v5c0 .55273.44775 1 1 1z"/><path d="m32.8999 18.7998c.4171.31246 1.06916.24243 1.3999-.2002l1.4502-1.93359s1.44375 1.925 1.45017 1.93357c.30919.41225.96156.52863 1.39944.20022.44238-.33105.53223-.95801.2002-1.39941l-1.8003-2.40039 1.80029-2.40039c.33203-.44141.24219-1.06836-.2002-1.39941-.44043-.33105-1.06836-.24219-1.39941.2002l-1.45019 1.93358-1.4502-1.93359c-.33105-.44336-.95703-.53223-1.3999-.2002-.44189.33105-.53125.95801-.19971 1.39941l1.8003 2.4004-1.80029 2.40039c-.33151.44136-.24221 1.06822.1997 1.39941z"/><path d="m15 22c0 .55273.44775 1 1 1h2c.55225 0 1-.44727 1-1s-.44775-1-1-1h-2c-.55225 0-1 .44727-1 1z"/><path d="m16 27h2c.55225 0 1-.44727 1-1s-.44775-1-1-1h-2c-.55225 0-1 .44727-1 1s.44775 1 1 1z"/><path d="m16 31h2c.55225 0 1-.44727 1-1s-.44775-1-1-1h-2c-.55225 0-1 .44727-1 1s.44775 1 1 1z"/><path d="m26 33h-10c-.55225 0-1 .44727-1 1s.44775 1 1 1h10c.55225 0 1-.44727 1-1s-.44775-1-1-1z"/><path d="m26 37h-10c-.55225 0-1 .44727-1 1s.44775 1 1 1h10c.55225 0 1-.44727 1-1s-.44775-1-1-1z"/><path d="m21 22c0 .55273.44775 1 1 1h18c.55273 0 1-.44727 1-1s-.44727-1-1-1h-18c-.55225 0-1 .44727-1 1z"/><path d="m40 25h-18c-.55225 0-1 .44727-1 1s.44775 1 1 1h18c.55273 0 1-.44727 1-1s-.44727-1-1-1z"/><path d="m41 30c0-.55273-.44727-1-1-1h-18c-.55225 0-1 .44727-1 1s.44775 1 1 1h18c.55273 0 1-.44727 1-1z"/><circle cx="28" cy="8" r="1"/></g></svg>